<svg width="100%" height="100%" overflow="visible" style="display: block;" viewBox="0 0 15.7143 22.1429" fill="none" xmlns="http://www.w3.org/2000/svg">
<g id="mouse-wireless--remote-wireless-device-electronics-mouse-computer">
<path id="Vector" d="M15.0893 7.85714C15.0893 3.86294 11.8513 0.625 7.85714 0.625C3.86294 0.625 0.625 3.86294 0.625 7.85714V14.2857C0.625 18.2799 3.86294 21.5179 7.85714 21.5179C11.8513 21.5179 15.0893 18.2799 15.0893 14.2857V7.85714Z" fill="var(--fill-0, white)" fill-opacity="0.18"/>
<path id="Vector_2" d="M15.0893 7.85714C15.0893 3.86294 11.8513 0.625 7.85714 0.625C3.86294 0.625 0.625 3.86294 0.625 7.85714V14.2857C0.625 18.2799 3.86294 21.5179 7.85714 21.5179C11.8513 21.5179 15.0893 18.2799 15.0893 14.2857V7.85714Z" stroke="var(--stroke-0, white)" stroke-width="1.25" stroke-linecap="round" stroke-linejoin="round"/>
<path id="Vector_3" d="M7.85742 5.44641V7.85713" stroke="var(--stroke-0, white)" stroke-width="1.25" stroke-linecap="round" stroke-linejoin="round"/>
</g>
</svg>
