<svg preserveAspectRatio="none" width="100%" height="100%" overflow="visible" style="display: block;" viewBox="0 0 24 24" fill="none" xmlns="http://www.w3.org/2000/svg">
<g id="Globe--Streamline-Guidance-Free" clip-path="url(#clip0_2009_2821)">
<path id="Vector" d="M23 12C23 5.925 18.075 1 12 1M23 12C23 18.075 18.075 23 12 23M23 12C23 14.21 18.575 10.5 12.5 10.5C6.425 10.5 1 14.21 1 12M12 1C5.925 1 1 5.925 1 12M12 1C14.761 1 17 5.925 17 12C17 18.075 14.761 23 12 23M12 1C9.239 1 7 5.925 7 12C7 18.075 9.239 23 12 23M12 23C5.925 23 1 18.075 1 12" stroke="var(--stroke-0, #9A054E)" stroke-width="1.5"/>
</g>
<defs>
<clipPath id="clip0_2009_2821">
<rect width="24" height="24" fill="white"/>
</clipPath>
</defs>
</svg>
