<svg width="801" height="14" viewBox="0 0 801 14" fill="none" xmlns="http://www.w3.org/2000/svg">
<line x1="0.5" y1="2.18557e-08" x2="0.5" y2="8" stroke="white"/>
<line x1="10.5" y1="2.18557e-08" x2="10.5" y2="6" stroke="#7A7A7A"/>
<line x1="20.5" y1="2.18557e-08" x2="20.5" y2="6" stroke="#7A7A7A"/>
<line x1="30.5" y1="2.18557e-08" x2="30.5" y2="6" stroke="#7A7A7A"/>
<line x1="40.5" y1="2.18557e-08" x2="40.5" y2="6" stroke="#7A7A7A"/>
<line x1="50.5" y1="2.18557e-08" x2="50.5" y2="8" stroke="white"/>
<line x1="60.5" y1="2.18557e-08" x2="60.5" y2="6" stroke="#7A7A7A"/>
<line x1="70.5" y1="2.18557e-08" x2="70.5" y2="6" stroke="#7A7A7A"/>
<line x1="80.5" y1="2.18557e-08" x2="80.5" y2="6" stroke="#7A7A7A"/>
<line x1="90.5" y1="2.18557e-08" x2="90.5" y2="6" stroke="#7A7A7A"/>
<line x1="100.5" y1="2.18557e-08" x2="100.5" y2="8" stroke="white"/>
<line x1="110.5" y1="2.18557e-08" x2="110.5" y2="6" stroke="#7A7A7A"/>
<line x1="120.5" y1="2.18557e-08" x2="120.5" y2="6" stroke="#7A7A7A"/>
<line x1="130.5" y1="2.18557e-08" x2="130.5" y2="6" stroke="#7A7A7A"/>
<line x1="140.5" y1="2.18557e-08" x2="140.5" y2="6" stroke="#7A7A7A"/>
<line x1="150.5" y1="2.18557e-08" x2="150.5" y2="8" stroke="white"/>
<line x1="160.5" y1="2.18557e-08" x2="160.5" y2="6" stroke="#7A7A7A"/>
<line x1="170.5" y1="2.18557e-08" x2="170.5" y2="6" stroke="#7A7A7A"/>
<line x1="180.5" y1="2.18557e-08" x2="180.5" y2="6" stroke="#7A7A7A"/>
<line x1="190.5" y1="2.18557e-08" x2="190.5" y2="6" stroke="#7A7A7A"/>
<line x1="200.5" y1="2.18557e-08" x2="200.5" y2="8" stroke="white"/>
<line x1="210.5" y1="2.18557e-08" x2="210.5" y2="6" stroke="#7A7A7A"/>
<line x1="220.5" y1="2.18557e-08" x2="220.5" y2="6" stroke="#7A7A7A"/>
<line x1="230.5" y1="2.18557e-08" x2="230.5" y2="6" stroke="#7A7A7A"/>
<line x1="240.5" y1="2.18557e-08" x2="240.5" y2="6" stroke="#7A7A7A"/>
<line x1="250.5" y1="2.18557e-08" x2="250.5" y2="8" stroke="white"/>
<line x1="260.5" y1="2.18557e-08" x2="260.5" y2="6" stroke="#7A7A7A"/>
<line x1="270.5" y1="2.18557e-08" x2="270.5" y2="6" stroke="#7A7A7A"/>
<line x1="280.5" y1="2.18557e-08" x2="280.5" y2="6" stroke="#7A7A7A"/>
<line x1="290.5" y1="2.18557e-08" x2="290.5" y2="6" stroke="#7A7A7A"/>
<line x1="300.5" y1="2.18557e-08" x2="300.5" y2="8" stroke="white"/>
<line x1="310.5" y1="2.18557e-08" x2="310.5" y2="6" stroke="#7A7A7A"/>
<line x1="320.5" y1="2.18557e-08" x2="320.5" y2="6" stroke="#7A7A7A"/>
<line x1="330.5" y1="2.18557e-08" x2="330.5" y2="6" stroke="#7A7A7A"/>
<line x1="340.5" y1="2.18557e-08" x2="340.5" y2="6" stroke="#7A7A7A"/>
<line x1="350.5" y1="2.18557e-08" x2="350.5" y2="8" stroke="white"/>
<line x1="360.5" y1="2.18557e-08" x2="360.5" y2="6" stroke="#7A7A7A"/>
<line x1="370.5" y1="2.18557e-08" x2="370.5" y2="6" stroke="#7A7A7A"/>
<line x1="380.5" y1="2.18557e-08" x2="380.5" y2="6" stroke="#7A7A7A"/>
<line x1="390.5" y1="2.18557e-08" x2="390.5" y2="6" stroke="#7A7A7A"/>
<line x1="400.5" y1="2.18557e-08" x2="400.5" y2="14" stroke="white"/>
<line x1="410.5" y1="2.18557e-08" x2="410.5" y2="6" stroke="#7A7A7A"/>
<line x1="420.5" y1="2.18557e-08" x2="420.5" y2="6" stroke="#7A7A7A"/>
<line x1="430.5" y1="2.18557e-08" x2="430.5" y2="6" stroke="#7A7A7A"/>
<line x1="440.5" y1="2.18557e-08" x2="440.5" y2="6" stroke="#7A7A7A"/>
<line x1="450.5" y1="2.18557e-08" x2="450.5" y2="8" stroke="white"/>
<line x1="460.5" y1="2.18557e-08" x2="460.5" y2="6" stroke="#7A7A7A"/>
<line x1="470.5" y1="2.18557e-08" x2="470.5" y2="6" stroke="#7A7A7A"/>
<line x1="480.5" y1="2.18557e-08" x2="480.5" y2="6" stroke="#7A7A7A"/>
<line x1="490.5" y1="2.18557e-08" x2="490.5" y2="6" stroke="#7A7A7A"/>
<line x1="500.5" y1="2.18557e-08" x2="500.5" y2="8" stroke="white"/>
<line x1="510.5" y1="2.18557e-08" x2="510.5" y2="6" stroke="#7A7A7A"/>
<line x1="520.5" y1="2.18557e-08" x2="520.5" y2="6" stroke="#7A7A7A"/>
<line x1="530.5" y1="2.18557e-08" x2="530.5" y2="6" stroke="#7A7A7A"/>
<line x1="540.5" y1="2.18557e-08" x2="540.5" y2="6" stroke="#7A7A7A"/>
<line x1="550.5" y1="2.18557e-08" x2="550.5" y2="8" stroke="white"/>
<line x1="560.5" y1="2.18557e-08" x2="560.5" y2="6" stroke="#7A7A7A"/>
<line x1="570.5" y1="2.18557e-08" x2="570.5" y2="6" stroke="#7A7A7A"/>
<line x1="580.5" y1="2.18557e-08" x2="580.5" y2="6" stroke="#7A7A7A"/>
<line x1="590.5" y1="2.18557e-08" x2="590.5" y2="6" stroke="#7A7A7A"/>
<line x1="600.5" y1="2.18557e-08" x2="600.5" y2="8" stroke="white"/>
<line x1="610.5" y1="2.18557e-08" x2="610.5" y2="6" stroke="#7A7A7A"/>
<line x1="620.5" y1="2.18557e-08" x2="620.5" y2="6" stroke="#7A7A7A"/>
<line x1="630.5" y1="2.18557e-08" x2="630.5" y2="6" stroke="#7A7A7A"/>
<line x1="640.5" y1="2.18557e-08" x2="640.5" y2="6" stroke="#7A7A7A"/>
<line x1="650.5" y1="2.18557e-08" x2="650.5" y2="8" stroke="white"/>
<line x1="660.5" y1="2.18557e-08" x2="660.5" y2="6" stroke="#7A7A7A"/>
<line x1="670.5" y1="2.18557e-08" x2="670.5" y2="6" stroke="#7A7A7A"/>
<line x1="680.5" y1="2.18557e-08" x2="680.5" y2="6" stroke="#7A7A7A"/>
<line x1="690.5" y1="2.18557e-08" x2="690.5" y2="6" stroke="#7A7A7A"/>
<line x1="700.5" y1="2.18557e-08" x2="700.5" y2="8" stroke="white"/>
<line x1="710.5" y1="2.18557e-08" x2="710.5" y2="6" stroke="#7A7A7A"/>
<line x1="720.5" y1="2.18557e-08" x2="720.5" y2="6" stroke="#7A7A7A"/>
<line x1="730.5" y1="2.18557e-08" x2="730.5" y2="6" stroke="#7A7A7A"/>
<line x1="740.5" y1="2.18557e-08" x2="740.5" y2="6" stroke="#7A7A7A"/>
<line x1="750.5" y1="2.18557e-08" x2="750.5" y2="8" stroke="white"/>
<line x1="760.5" y1="2.18557e-08" x2="760.5" y2="6" stroke="#7A7A7A"/>
<line x1="770.5" y1="2.18557e-08" x2="770.5" y2="6" stroke="#7A7A7A"/>
<line x1="780.5" y1="2.18557e-08" x2="780.5" y2="6" stroke="#7A7A7A"/>
<line x1="790.5" y1="2.18557e-08" x2="790.5" y2="6" stroke="#7A7A7A"/>
<line x1="800.5" y1="2.18557e-08" x2="800.5" y2="8" stroke="white"/>
</svg>
